External Loads File
version=1
nRows=55
nColumns=13
Range=5.000000e-03-10 seconds
endheader
time 	forceRightX 	forceRightY 	forceRightZ 	pointRightX 	pointRightY 	pointRightZ 	forceLeftX 	forceLeftY 	forceLeftZ 	pointLeftX 	pointLeftY 	pointLeftZ 		
0.005000 0.498954 133.597939 -0.000000 0.160087 0.170176 -0.145635 1.414547 116.670558 -0.000000 0.313480 0.486940 -0.378403
0.010000 0.931858 133.350130 -0.000000 0.160105 0.170184 -0.145644 0.026144 113.665149 -0.000000 0.313465 0.486958 -0.378395
0.015000 1.379788 133.198237 -0.000000 0.160113 0.170189 -0.145637 -1.187523 111.040259 -0.000000 0.313454 0.486961 -0.378401
0.020000 1.812691 133.158248 -0.000000 0.160129 0.170166 -0.145646 -2.127222 109.022877 -0.000000 0.313446 0.486967 -0.378408
0.025000 2.250564 133.229460 -0.000000 0.160095 0.170166 -0.145660 -2.749047 107.671734 -0.000000 0.313440 0.486976 -0.378416
0.030000 2.636462 133.393977 -0.000000 0.160154 0.170154 -0.145621 -3.122390 106.957978 -0.000000 0.313437 0.486987 -0.378425
0.035000 3.016822 133.620197 -0.000000 0.160160 0.170161 -0.145626 -3.258874 106.786707 -0.000000 0.313435 0.487001 -0.378434
0.040000 3.359731 133.867784 -0.000000 0.160155 0.170152 -0.145610 -3.243722 106.999503 -0.000000 0.313434 0.487017 -0.378444
0.045000 3.646106 134.079509 -0.000000 0.160164 0.170160 -0.145613 -3.131584 107.443924 -0.000000 0.313435 0.487036 -0.378455
0.050000 3.881808 134.196466 -0.000000 0.160136 0.170172 -0.145606 -2.945226 107.994584 -0.000000 0.313435 0.487057 -0.378466
0.055000 4.041032 134.191845 -0.000000 0.160156 0.170161 -0.145600 -2.754186 108.519778 -0.000000 0.313436 0.487081 -0.378478
0.060000 4.166895 134.085502 -0.000000 0.160159 0.170146 -0.145599 -2.584113 108.913191 -0.000000 0.313436 0.487107 -0.378490
0.065000 4.279349 133.933500 -0.000000 0.160157 0.170142 -0.145600 -2.471173 109.121826 -0.000000 0.313435 0.487136 -0.378503
0.070000 4.385007 133.785197 -0.000000 0.160160 0.170139 -0.145605 -2.455630 109.111622 -0.000000 0.313433 0.487166 -0.378516
0.075000 4.477793 133.652584 -0.000000 0.160175 0.170145 -0.145595 -2.565630 108.861467 -0.000000 0.313429 0.487199 -0.378529
0.080000 4.556844 133.522611 -0.000000 0.160158 0.170136 -0.145602 -2.793333 108.382546 -0.000000 0.313422 0.487235 -0.378542
0.085000 4.601038 133.384237 -0.000000 0.160176 0.170136 -0.145589 -3.144667 107.691626 -0.000000 0.313413 0.487272 -0.378556
0.090000 4.626958 133.234797 -0.000000 0.160187 0.170121 -0.145605 -3.599782 106.816133 -0.000000 0.313401 0.487311 -0.378570
0.095000 4.653516 133.077658 -0.000000 0.160195 0.170124 -0.145589 -4.109928 105.848517 -0.000000 0.313385 0.487353 -0.378583
0.100000 4.687728 132.920479 -0.000000 0.160219 0.170114 -0.145594 -4.607636 104.926209 -0.000000 0.313366 0.487396 -0.378597
0.105000 4.759514 132.771537 -0.000000 0.160228 0.170103 -0.145599 -5.008399 104.160275 -0.000000 0.313342 0.487442 -0.378610
0.110000 4.863130 132.635447 -0.000000 0.160260 0.170089 -0.145588 -5.259009 103.635575 -0.000000 0.313313 0.487489 -0.378624
0.115000 5.010651 132.509665 -0.000000 0.160278 0.170108 -0.145582 -5.299643 103.427242 -0.000000 0.313279 0.487538 -0.378637
0.120000 5.170706 132.395378 -0.000000 0.160305 0.170089 -0.145592 -5.149531 103.545727 -0.000000 0.313239 0.487590 -0.378650
0.125000 5.351263 132.297963 -0.000000 0.160328 0.170095 -0.145597 -4.845043 103.935838 -0.000000 0.313193 0.487642 -0.378662
0.130000 5.548516 132.213167 -0.000000 0.160347 0.170085 -0.145588 -4.435878 104.532822 -0.000000 0.313166 0.487697 -0.378681
0.135000 5.726229 132.117457 -0.000000 0.160392 0.170088 -0.145586 -3.989866 105.249553 -0.000000 0.313122 0.487753 -0.378692
0.140000 5.863153 131.980459 -0.000000 0.160426 0.170068 -0.145579 -3.566305 105.952446 -0.000000 0.313082 0.487811 -0.378706
0.145000 5.929754 131.781558 -0.000000 0.160464 0.170058 -0.145576 -3.214973 106.526867 -0.000000 0.313049 0.487871 -0.378715
0.150000 5.914314 131.520702 -0.000000 0.160484 0.170047 -0.145571 -2.946870 106.930781 -0.000000 0.313006 0.487932 -0.378735
0.155000 5.824931 131.233611 -0.000000 0.160517 0.170017 -0.145594 -2.764642 107.154523 -0.000000 0.312971 0.487994 -0.378753
0.160000 5.701405 130.980306 -0.000000 0.160553 0.170022 -0.145591 -2.661974 107.193342 -0.000000 0.312930 0.488058 -0.378770
0.165000 5.564979 130.809339 -0.000000 0.160590 0.170007 -0.145585 -2.632551 107.078716 -0.000000 0.312884 0.488124 -0.378786
0.170000 5.437772 130.736883 -0.000000 0.160622 0.169980 -0.145594 -2.650299 106.870862 -0.000000 0.312834 0.488191 -0.378802
0.175000 5.341210 130.754654 -0.000000 0.160650 0.169990 -0.145596 -2.695960 106.611319 -0.000000 0.312782 0.488259 -0.378818
0.180000 5.282059 130.847181 -0.000000 0.160661 0.169984 -0.145605 -2.766219 106.336934 -0.000000 0.312730 0.488328 -0.378836
0.185000 5.259357 131.005046 -0.000000 0.160701 0.169957 -0.145584 -2.856825 106.103833 -0.000000 0.312680 0.488399 -0.378857
0.190000 5.301493 131.220127 -0.000000 0.160719 0.169941 -0.145593 -2.933601 105.958748 -0.000000 0.312628 0.488471 -0.378881
0.195000 5.391061 131.472238 -0.000000 0.160744 0.169933 -0.145582 -2.976272 105.945440 -0.000000 0.312570 0.488543 -0.378895
0.200000 5.516034 131.720081 -0.000000 0.160770 0.169916 -0.145589 -2.931523 106.130300 -0.000000 0.312532 0.488618 -0.378908
0.205000 5.577985 131.919926 -0.000000 0.160794 0.169884 -0.145587 -2.830767 106.542579 -0.000000 0.312291 0.488693 -0.378841
0.210000 5.684563 132.036734 -0.000000 0.160822 0.169861 -0.145596 -2.582196 107.143231 -0.000000 0.312235 0.488769 -0.378862
0.215000 5.768942 132.068225 -0.000000 0.160842 0.169855 -0.145584 -2.260399 107.860170 -0.000000 0.312203 0.488846 -0.378877
0.220000 5.811492 132.030633 -0.000000 0.160852 0.169835 -0.145589 -1.928286 108.599853 -0.000000 0.312147 0.488924 -0.378898
0.225000 5.815995 131.953432 -0.000000 0.160884 0.169822 -0.145588 -1.658980 109.243868 -0.000000 0.312044 0.489002 -0.378908
0.230000 5.850939 131.864197 -0.000000 0.160912 0.169810 -0.145589 -1.462153 109.710454 -0.000000 0.311996 0.489082 -0.378865
0.235000 5.994362 131.775497 -0.000000 0.160924 0.169790 -0.145592 -1.303155 109.967027 -0.000000 0.312178 0.489162 -0.379050
0.240000 6.004806 131.704273 -0.000000 0.160948 0.169775 -0.145588 -1.392326 109.982868 -0.000000 0.311896 0.489244 -0.378971
0.245000 6.108354 131.656495 -0.000000 0.160974 0.169774 -0.145582 -1.526686 109.763240 -0.000000 0.311838 0.489325 -0.378987
0.250000 6.224745 131.664969 -0.000000 0.160986 0.169759 -0.145585 -1.726752 109.376711 -0.000000 0.311794 0.489408 -0.379015
0.255000 6.331234 131.754490 -0.000000 0.161007 0.169763 -0.145591 -1.961890 108.895669 -0.000000 0.311750 0.489491 -0.379038
0.260000 6.397802 131.929845 -0.000000 0.161036 0.169737 -0.145579 -2.228875 108.346050 -0.000000 0.311693 0.489574 -0.379048
0.265000 6.439694 132.170036 -0.000000 0.161043 0.169724 -0.145580 -2.494178 107.746468 -0.000000 0.311657 0.489658 -0.379073
0.270000 6.446187 132.443498 -0.000000 0.161055 0.169735 -0.145597 -2.751048 107.119459 -0.000000 0.311634 0.489743 -0.379130
0.275000 6.402122 132.725437 -0.000000 0.161072 0.169714 -0.145578 -3.013830 106.467840 -0.000000 0.311558 0.489827 -0.379124
